<svg width="30" height="31" viewBox="0 0 30 31" fill="none" xmlns="http://www.w3.org/2000/svg">
<g clip-path="url(#clip0_22_58)">
<path d="M15.0004 30.1091C23.2849 30.1091 30.0007 23.3933 30.0007 15.1088C30.0007 6.82429 23.2849 0.108398 15.0004 0.108398C6.7159 0.108398 0 6.82429 0 15.1088C0 23.3933 6.7159 30.1091 15.0004 30.1091Z" fill="#222222" fill-opacity="0.6"/>
<path d="M12.9129 12.5803V11.7616C12.6323 11.7232 12.3471 11.6992 12.0558 11.6992C8.54918 11.6992 5.69644 14.5519 5.69644 18.0586C5.69644 20.21 6.77177 22.1138 8.41147 23.2651C7.3527 22.1288 6.70329 20.6065 6.70329 18.9352C6.70329 15.479 9.47551 12.6601 12.9129 12.5796V12.5803Z" fill="#25F4EE"/>
<path d="M13.0627 21.8406C14.6271 21.8406 15.9034 20.596 15.9613 19.0458L15.9666 5.19905H18.4965C18.4438 4.91461 18.4152 4.62188 18.4152 4.32239H14.9597L14.9545 18.1692C14.8965 19.7201 13.6203 20.964 12.0558 20.964C11.5697 20.964 11.1115 20.8421 10.7089 20.6306C11.2371 21.362 12.0942 21.8414 13.0634 21.8414L13.0627 21.8406Z" fill="#25F4EE"/>
<path d="M23.2222 9.89842V9.12861C22.2575 9.12861 21.3583 8.84191 20.6042 8.35052C21.2755 9.12109 22.1875 9.67719 23.2222 9.89842Z" fill="#25F4EE"/>
<path d="M20.6042 8.34978C19.8691 7.50547 19.4221 6.40306 19.4221 5.1983H18.4965C18.7403 6.51443 19.5214 7.64393 20.6042 8.34978Z" fill="#FE2C55"/>
<path d="M12.0558 15.1546C10.4545 15.1546 9.15118 16.4572 9.15118 18.0593C9.15118 19.1745 9.78404 20.1437 10.7081 20.6298C10.3635 20.1527 10.158 19.5681 10.158 18.936C10.158 17.3346 11.4614 16.0313 13.0627 16.0313C13.3614 16.0313 13.6481 16.081 13.9198 16.1652V12.6383C13.6391 12.5999 13.3539 12.5758 13.0627 12.5758C13.0123 12.5758 12.9626 12.5788 12.9122 12.5796V15.2886C12.6413 15.2035 12.3538 15.1546 12.0551 15.1546H12.0558Z" fill="#FE2C55"/>
<path d="M23.2222 9.89844V12.5841C21.4305 12.5841 19.7705 12.0107 18.4152 11.0385V18.0601C18.4152 21.5667 15.5625 24.4195 12.0558 24.4195C10.7006 24.4195 9.4439 23.992 8.41147 23.2666C9.57333 24.5135 11.2281 25.2961 13.0634 25.2961C16.5701 25.2961 19.4228 22.4434 19.4228 18.9367V11.9151C20.7781 12.8881 22.4381 13.4608 24.2298 13.4608V10.0053C23.8844 10.0053 23.5473 9.96767 23.223 9.89844H23.2222Z" fill="#FE2C55"/>
<path d="M18.4152 18.0593V11.0377C19.7705 12.0107 21.4305 12.5834 23.2222 12.5834V9.89768C22.1875 9.67644 21.2755 9.12034 20.6042 8.34978C19.5214 7.64393 18.7403 6.51443 18.4965 5.1983H15.9666L15.9613 19.0451C15.9034 20.596 14.6271 21.8399 13.0627 21.8399C12.0934 21.8399 11.2363 21.3613 10.7081 20.6291C9.78327 20.1422 9.15117 19.1738 9.15117 18.0586C9.15117 16.4572 10.4545 15.1539 12.0558 15.1539C12.3546 15.1539 12.6413 15.2036 12.9129 15.2879V12.5788C9.4755 12.6594 6.70328 15.4782 6.70328 18.9345C6.70328 20.6065 7.35269 22.1281 8.41146 23.2644C9.44464 23.9898 10.7006 24.4172 12.0558 24.4172C15.5625 24.4172 18.4152 21.5645 18.4152 18.0578V18.0593Z" fill="white"/>
</g>
<defs>
<clipPath id="clip0_22_58">
<rect width="30" height="30" fill="white" transform="translate(0 0.108398)"/>
</clipPath>
</defs>
</svg>
